<svg width="20" height="20" viewBox="0 0 20 20" fill="none" xmlns="http://www.w3.org/2000/svg">
<path d="M4.99996 5.00001H5.00829M4.99996 15H5.00829M3.33329 1.66667H16.6666C17.5871 1.66667 18.3333 2.41286 18.3333 3.33334V6.66667C18.3333 7.58715 17.5871 8.33334 16.6666 8.33334H3.33329C2.41282 8.33334 1.66663 7.58715 1.66663 6.66667V3.33334C1.66663 2.41286 2.41282 1.66667 3.33329 1.66667ZM3.33329 11.6667H16.6666C17.5871 11.6667 18.3333 12.4129 18.3333 13.3333V16.6667C18.3333 17.5871 17.5871 18.3333 16.6666 18.3333H3.33329C2.41282 18.3333 1.66663 17.5871 1.66663 16.6667V13.3333C1.66663 12.4129 2.41282 11.6667 3.33329 11.6667Z" stroke="#39BAF5" style="stroke:#39BAF5;stroke:color(display-p3 0.2235 0.7294 0.9608);stroke-opacity:1;" stroke-width="2" stroke-linecap="round" stroke-linejoin="round"/>
</svg>
