<svg width="15" height="16" viewBox="0 0 15 16" fill="none" xmlns="http://www.w3.org/2000/svg">
<g clip-path="url(#clip0_602_1378)">
<path d="M8.58125 13.625C8.47137 13.8144 8.31365 13.9717 8.12389 14.081C7.93413 14.1903 7.71899 14.2478 7.5 14.2478C7.28101 14.2478 7.06587 14.1903 6.87611 14.081C6.68635 13.9717 6.52863 13.8144 6.41875 13.625M11.25 5.5C11.25 4.50544 10.8549 3.55161 10.1517 2.84835C9.44839 2.14509 8.49456 1.75 7.5 1.75C6.50544 1.75 5.55161 2.14509 4.84835 2.84835C4.14509 3.55161 3.75 4.50544 3.75 5.5C3.75 9.875 1.875 11.125 1.875 11.125H13.125C13.125 11.125 11.25 9.875 11.25 5.5Z" stroke="#003A53" style="stroke:#003A53;stroke:color(display-p3 0.0000 0.2275 0.3255);stroke-opacity:1;" stroke-width="2" stroke-linecap="round" stroke-linejoin="round"/>
</g>
<defs>
<clipPath id="clip0_602_1378">
<rect width="15" height="15" fill="white" style="fill:white;fill-opacity:1;" transform="translate(0 0.5)"/>
</clipPath>
</defs>
</svg>
