<svg width="20" height="20" viewBox="0 0 20 20" fill="none" xmlns="http://www.w3.org/2000/svg">
<g clip-path="url(#clip0_602_1384)">
<path d="M7.57501 7.5C7.77093 6.94305 8.15763 6.47342 8.66663 6.17428C9.17564 5.87513 9.77409 5.76578 10.356 5.86559C10.9379 5.9654 11.4657 6.26793 11.8459 6.7196C12.2261 7.17127 12.4342 7.74293 12.4333 8.33333C12.4333 10 9.93334 10.8333 9.93334 10.8333M10 14.1667H10.0083M18.3333 10C18.3333 14.6024 14.6024 18.3333 10 18.3333C5.39763 18.3333 1.66667 14.6024 1.66667 10C1.66667 5.39762 5.39763 1.66666 10 1.66666C14.6024 1.66666 18.3333 5.39762 18.3333 10Z" stroke="#003A53" style="stroke:#003A53;stroke:color(display-p3 0.0000 0.2275 0.3255);stroke-opacity:1;" stroke-width="2" stroke-linecap="round" stroke-linejoin="round"/>
</g>
<defs>
<clipPath id="clip0_602_1384">
<rect width="20" height="20" fill="white" style="fill:white;fill-opacity:1;"/>
</clipPath>
</defs>
</svg>
