<svg width="70" height="70" viewBox="0 0 70 70" fill="none" xmlns="http://www.w3.org/2000/svg">
<mask id="mask0_180_19485" style="mask-type:alpha" maskUnits="userSpaceOnUse" x="0" y="0" width="70" height="70">
<rect width="70" height="70" fill="#D9D9D9" style="fill:#D9D9D9;fill:color(display-p3 0.8510 0.8510 0.8510);fill-opacity:1;"/>
</mask>
<g mask="url(#mask0_180_19485)">
<path d="M35.0001 67.0834C29.5556 67.0834 24.5487 65.8438 19.9792 63.3647C15.4098 60.8855 11.6667 57.58 8.75008 53.448V61.2501H2.91675V43.7501H20.4167V49.5834H13.198C15.5313 53.0834 18.606 55.9029 22.422 58.0418C26.2379 60.1806 30.4306 61.2501 35.0001 61.2501C38.6459 61.2501 42.0608 60.5574 45.2449 59.172C48.4289 57.7865 51.1997 55.915 53.5574 53.5574C55.915 51.1997 57.7865 48.4289 59.172 45.2449C60.5574 42.0608 61.2501 38.6459 61.2501 35.0001H67.0834C67.0834 39.4237 66.2449 43.5799 64.5678 47.4688C62.8907 51.3577 60.5938 54.7605 57.6772 57.6772C54.7605 60.5938 51.3577 62.8907 47.4688 64.5678C43.5799 66.2449 39.4237 67.0834 35.0001 67.0834ZM32.3751 55.4168V51.6251C30.0904 51.0904 28.231 50.106 26.797 48.672C25.3629 47.2379 24.3056 45.3543 23.6251 43.0209L28.4376 41.1251C29.0209 43.1181 29.9324 44.6129 31.172 45.6095C32.4115 46.606 33.8334 47.1043 35.4376 47.1043C37.0418 47.1043 38.415 46.7275 39.5574 45.974C40.6997 45.2206 41.2709 44.0418 41.2709 42.4376C41.2709 41.0279 40.6754 39.8855 39.4845 39.0105C38.2935 38.1355 36.1668 37.139 33.1043 36.0209C30.2362 35.0001 28.1338 33.7848 26.797 32.3751C25.4602 30.9654 24.7918 29.1181 24.7918 26.8334C24.7918 24.8404 25.4845 23.0296 26.8699 21.4011C28.2553 19.7727 30.139 18.7154 32.5209 18.2292V14.5834H37.6251V18.2292C39.3751 18.3751 40.9671 19.0799 42.4011 20.3438C43.8352 21.6077 44.8195 23.0904 45.3543 24.7918L40.6876 26.6876C40.2987 25.5695 39.6668 24.6338 38.7918 23.8803C37.9168 23.1268 36.7015 22.7501 35.1459 22.7501C33.4445 22.7501 32.1442 23.1147 31.2449 23.8438C30.3456 24.573 29.8959 25.5695 29.8959 26.8334C29.8959 28.0973 30.4549 29.0938 31.573 29.823C32.6911 30.5522 34.7084 31.4029 37.6251 32.3751C41.1251 33.639 43.4584 35.1216 44.6251 36.823C45.7918 38.5244 46.3751 40.3959 46.3751 42.4376C46.3751 43.8473 46.132 45.0869 45.6459 46.1563C45.1598 47.2258 44.5157 48.1372 43.7136 48.8907C42.9115 49.6442 41.9758 50.2518 40.9063 50.7136C39.8369 51.1754 38.6945 51.5279 37.4793 51.7709V55.4168H32.3751ZM2.91675 35.0001C2.91675 30.5765 3.75529 26.4202 5.43237 22.5313C7.10946 18.6424 9.40633 15.2397 12.323 12.323C15.2397 9.40633 18.6424 7.10946 22.5313 5.43237C26.4202 3.75529 30.5765 2.91675 35.0001 2.91675C40.4445 2.91675 45.4515 4.15633 50.0209 6.6355C54.5904 9.11467 58.3334 12.4202 61.2501 16.5522V8.75008H67.0834V26.2501H49.5834V20.4167H56.8022C54.4688 16.9167 51.3942 14.0973 47.5782 11.9584C43.7622 9.81953 39.5695 8.75008 35.0001 8.75008C31.3543 8.75008 27.9393 9.44279 24.7553 10.8282C21.5713 12.2136 18.8004 14.0852 16.4428 16.4428C14.0852 18.8004 12.2136 21.5713 10.8282 24.7553C9.44279 27.9393 8.75008 31.3543 8.75008 35.0001H2.91675Z" fill="#39BAF5" style="fill:#39BAF5;fill:color(display-p3 0.2235 0.7294 0.9608);fill-opacity:1;"/>
</g>
</svg>
