<svg width="20" height="20" viewBox="0 0 20 20" fill="none" xmlns="http://www.w3.org/2000/svg">
<mask id="mask0_180_19486" style="mask-type:alpha" maskUnits="userSpaceOnUse" x="0" y="0" width="20" height="20">
<rect width="20" height="20" fill="#D9D9D9" style="fill:#D9D9D9;fill:color(display-p3 0.8510 0.8510 0.8510);fill-opacity:1;"/>
</mask>
<g mask="url(#mask0_180_19486)">
<path d="M13.3333 10.8333L9.87492 7.45829C9.44436 7.04163 9.07978 6.57982 8.78117 6.07288C8.48256 5.56593 8.33325 5.01385 8.33325 4.41663C8.33325 3.65274 8.60061 3.00343 9.13534 2.46871C9.67006 1.93399 10.3194 1.66663 11.0833 1.66663C11.5277 1.66663 11.9444 1.76038 12.3333 1.94788C12.7221 2.13538 13.0555 2.38885 13.3333 2.70829C13.611 2.38885 13.9444 2.13538 14.3333 1.94788C14.7221 1.76038 15.1388 1.66663 15.5833 1.66663C16.3471 1.66663 16.9964 1.93399 17.5312 2.46871C18.0659 3.00343 18.3333 3.65274 18.3333 4.41663C18.3333 5.01385 18.1874 5.56593 17.8958 6.07288C17.6041 6.57982 17.243 7.04163 16.8124 7.45829L13.3333 10.8333ZM13.3333 8.49996L15.6041 6.27079C15.868 6.0069 16.111 5.72565 16.3333 5.42704C16.5555 5.12843 16.6666 4.79163 16.6666 4.41663C16.6666 4.11107 16.5624 3.85413 16.3541 3.64579C16.1458 3.43746 15.8888 3.33329 15.5833 3.33329C15.3888 3.33329 15.2048 3.37149 15.0312 3.44788C14.8576 3.52426 14.7083 3.63885 14.5833 3.79163L13.3333 5.29163L12.0833 3.79163C11.9583 3.63885 11.8089 3.52426 11.6353 3.44788C11.4617 3.37149 11.2777 3.33329 11.0833 3.33329C10.7777 3.33329 10.5208 3.43746 10.3124 3.64579C10.1041 3.85413 9.99992 4.11107 9.99992 4.41663C9.99992 4.79163 10.111 5.12843 10.3333 5.42704C10.5555 5.72565 10.7985 6.0069 11.0624 6.27079L13.3333 8.49996ZM5.83325 15.4166L11.6249 17L16.5833 15.4583C16.5138 15.3333 16.4131 15.2257 16.2812 15.1354C16.1492 15.0451 15.9999 15 15.8333 15H11.6249C11.2499 15 10.9513 14.9861 10.7291 14.9583C10.5069 14.9305 10.2777 14.875 10.0416 14.7916L8.10409 14.1458L8.56242 12.5208L10.2499 13.0833C10.486 13.1527 10.7638 13.2083 11.0833 13.25C11.4027 13.2916 11.8749 13.3194 12.4999 13.3333C12.4999 13.1805 12.4548 13.0347 12.3645 12.8958C12.2742 12.7569 12.1666 12.6666 12.0416 12.625L7.16659 10.8333H5.83325V15.4166ZM0.833252 18.3333V9.16663H7.16659C7.26381 9.16663 7.36103 9.17704 7.45825 9.19788C7.55547 9.21871 7.64575 9.24302 7.72909 9.27079L12.6249 11.0833C13.0833 11.25 13.4548 11.5416 13.7395 11.9583C14.0242 12.375 14.1666 12.8333 14.1666 13.3333H15.8333C16.5277 13.3333 17.118 13.5625 17.6041 14.0208C18.0902 14.4791 18.3333 15.0833 18.3333 15.8333V16.6666L11.6666 18.75L5.83325 17.125V18.3333H0.833252ZM2.49992 16.6666H4.16659V10.8333H2.49992V16.6666Z" fill="#00ADEF" style="fill:#00ADEF;fill:color(display-p3 0.0000 0.6784 0.9373);fill-opacity:1;"/>
</g>
</svg>
