<svg width="20" height="20" viewBox="0 0 20 20" fill="none" xmlns="http://www.w3.org/2000/svg">
<mask id="mask0_180_19493" style="mask-type:alpha" maskUnits="userSpaceOnUse" x="0" y="0" width="20" height="20">
<rect width="20" height="20" fill="#D9D9D9" style="fill:#D9D9D9;fill:color(display-p3 0.8510 0.8510 0.8510);fill-opacity:1;"/>
</mask>
<g mask="url(#mask0_180_19493)">
<path d="M0.833252 17.5V13.3333H2.49992V15.8333H4.99992V17.5H0.833252ZM14.9999 17.5V15.8333H17.4999V13.3333H19.1666V17.5H14.9999ZM3.33325 15V5H4.99992V15H3.33325ZM5.83325 15V5H6.66658V15H5.83325ZM8.33325 15V5H9.99992V15H8.33325ZM10.8333 15V5H13.3333V15H10.8333ZM14.1666 15V5H14.9999V15H14.1666ZM15.8333 15V5H16.6666V15H15.8333ZM0.833252 6.66667V2.5H4.99992V4.16667H2.49992V6.66667H0.833252ZM17.4999 6.66667V4.16667H14.9999V2.5H19.1666V6.66667H17.4999Z" fill="#00ADEF" style="fill:#00ADEF;fill:color(display-p3 0.0000 0.6784 0.9373);fill-opacity:1;"/>
</g>
</svg>
