<svg width="70" height="70" viewBox="0 0 70 70" fill="none" xmlns="http://www.w3.org/2000/svg">
<mask id="mask0_180_19576" style="mask-type:alpha" maskUnits="userSpaceOnUse" x="0" y="0" width="70" height="70">
<rect width="70" height="70" fill="#D9D9D9" style="fill:#D9D9D9;fill:color(display-p3 0.8510 0.8510 0.8510);fill-opacity:1;"/>
</mask>
<g mask="url(#mask0_180_19576)">
<path d="M11.6666 52.5V29.1666V30.1145V17.5V52.5ZM52.2083 59.7916L41.9999 49.5833C41.368 48.9513 40.9183 48.2708 40.651 47.5416C40.3836 46.8125 40.2499 46.0833 40.2499 45.3541C40.2499 43.7986 40.8089 42.4132 41.927 41.1979C43.0451 39.9826 44.4791 39.375 46.2291 39.375C47.5902 39.375 48.6596 39.6909 49.4374 40.3229C50.2152 40.9548 51.1388 41.8055 52.2083 42.875C53.1805 41.9027 54.0676 41.0764 54.8697 40.3958C55.6718 39.7152 56.7777 39.375 58.1874 39.375C59.986 39.375 61.4322 39.9948 62.526 41.2343C63.6197 42.4739 64.1666 43.8715 64.1666 45.427C64.1666 46.1562 64.0207 46.8854 63.7291 47.6145C63.4374 48.3437 62.9999 49 62.4166 49.5833L52.2083 59.7916ZM11.6666 23.3333H58.3332V17.5H11.6666V23.3333ZM33.7603 58.3333H11.6666C10.0624 58.3333 8.68915 57.7621 7.54679 56.6198C6.40443 55.4774 5.83325 54.1041 5.83325 52.5V17.5C5.83325 15.8958 6.40443 14.5225 7.54679 13.3802C8.68915 12.2378 10.0624 11.6666 11.6666 11.6666H58.3332C59.9374 11.6666 61.3107 12.2378 62.453 13.3802C63.5954 14.5225 64.1666 15.8958 64.1666 17.5V33.0312C62.4652 31.8159 60.6058 30.868 58.5885 30.1875C56.5711 29.5069 54.4444 29.1666 52.2083 29.1666C49.4374 29.1666 46.8246 29.6892 44.3697 30.7343C41.9148 31.7795 39.7638 33.2013 37.9166 35H11.6666V52.5H32.0103C32.1562 53.5208 32.3749 54.5173 32.6666 55.4895C32.9582 56.4618 33.3228 57.4097 33.7603 58.3333Z" fill="#00ADEF" style="fill:#00ADEF;fill:color(display-p3 0.0000 0.6784 0.9373);fill-opacity:1;"/>
</g>
</svg>
