<svg width="70" height="70" viewBox="0 0 70 70" fill="none" xmlns="http://www.w3.org/2000/svg">
<mask id="mask0_536_2858" style="mask-type:alpha" maskUnits="userSpaceOnUse" x="0" y="0" width="70" height="70">
<rect width="70" height="70" fill="#D9D9D9" style="fill:#D9D9D9;fill:color(display-p3 0.8510 0.8510 0.8510);fill-opacity:1;"/>
</mask>
<g mask="url(#mask0_536_2858)">
<path d="M46.6667 37.9166L34.5625 26.1041C33.0556 24.6458 31.7795 23.0295 30.7344 21.2552C29.6893 19.4809 29.1667 17.5486 29.1667 15.4583C29.1667 12.7847 30.1025 10.5121 31.974 8.6406C33.8455 6.76908 36.1181 5.83331 38.7917 5.83331C40.3472 5.83331 41.8056 6.16144 43.1667 6.81769C44.5278 7.47394 45.6945 8.36109 46.6667 9.47915C47.6389 8.36109 48.8056 7.47394 50.1667 6.81769C51.5278 6.16144 52.9861 5.83331 54.5417 5.83331C57.2153 5.83331 59.4879 6.76908 61.3594 8.6406C63.2309 10.5121 64.1667 12.7847 64.1667 15.4583C64.1667 17.5486 63.6563 19.4809 62.6354 21.2552C61.6146 23.0295 60.3507 24.6458 58.8438 26.1041L46.6667 37.9166ZM46.6667 29.75L54.6146 21.9479C55.5382 21.0243 56.3889 20.0399 57.1667 18.9948C57.9445 17.9496 58.3334 16.7708 58.3334 15.4583C58.3334 14.3889 57.9688 13.4896 57.2396 12.7604C56.5104 12.0312 55.6111 11.6666 54.5417 11.6666C53.8611 11.6666 53.217 11.8003 52.6094 12.0677C52.0018 12.335 51.4792 12.7361 51.0417 13.2708L46.6667 18.5208L42.2917 13.2708C41.8542 12.7361 41.3316 12.335 40.724 12.0677C40.1163 11.8003 39.4722 11.6666 38.7917 11.6666C37.7222 11.6666 36.8229 12.0312 36.0938 12.7604C35.3646 13.4896 35 14.3889 35 15.4583C35 16.7708 35.3889 17.9496 36.1667 18.9948C36.9445 20.0399 37.7952 21.0243 38.7188 21.9479L46.6667 29.75ZM20.4167 53.9583L40.6875 59.5L58.0417 54.1042C57.7986 53.6667 57.4462 53.2899 56.9844 52.9739C56.5226 52.658 56 52.5 55.4167 52.5H40.6875C39.375 52.5 38.3299 52.4514 37.5521 52.3541C36.7743 52.2569 35.9722 52.0625 35.1459 51.7708L28.3646 49.5104L29.9688 43.8229L35.875 45.7916C36.7014 46.0347 37.6736 46.2291 38.7917 46.375C39.9097 46.5208 41.5625 46.618 43.75 46.6666C43.75 46.1319 43.592 45.6215 43.2761 45.1354C42.9601 44.6493 42.5834 44.3333 42.1459 44.1875L25.0834 37.9166H20.4167V53.9583ZM2.91669 64.1666V32.0833H25.0834C25.4236 32.0833 25.7639 32.1198 26.1042 32.1927C26.4445 32.2656 26.7604 32.3507 27.0521 32.4479L44.1875 38.7916C45.7917 39.375 47.092 40.3958 48.0886 41.8541C49.0851 43.3125 49.5834 44.9166 49.5834 46.6666H55.4167C57.8472 46.6666 59.9132 47.4687 61.6146 49.0729C63.316 50.6771 64.1667 52.7916 64.1667 55.4166V58.3333L40.8334 65.625L20.4167 59.9375V64.1666H2.91669ZM8.75002 58.3333H14.5834V37.9166H8.75002V58.3333Z" fill="#00ADEF" style="fill:#00ADEF;fill:color(display-p3 0.0000 0.6784 0.9373);fill-opacity:1;"/>
</g>
</svg>
